<svg xmlns="http://www.w3.org/2000/svg" xmlns:xlink="http://www.w3.org/1999/xlink" version="1.1" x="0px" y="0px" viewBox="0 0 100 125" style="enable-background:new 0 0 100 100;" xml:space="preserve"><path d="M64.8,36.6c-0.3,0.4-0.6,0.8-0.9,1.2c-0.2,0.3-0.4,0.6-0.5,1c-0.1,0.3-0.1,0.6-0.1,0.9c0,0.3,0.1,0.6,0.3,0.9  c0.1,0.4,0.3,0.7,0.6,1c0.2,0.2,0.4,0.5,0.7,0.7l-1.5,1.5c-0.6-0.3-1.2-0.6-1.7-1c-0.6-0.5-1.1-1.1-1.4-1.8  c-0.2-0.4-0.3-0.8-0.4-1.3c0-0.4,0-0.8,0.1-1.2c0.1-0.4,0.3-0.8,0.5-1.2c0.2-0.5,0.5-0.9,0.8-1.3c0.7-0.9,1.2-2,1.5-3.2  c0.1-0.9,0-1.8-0.4-2.6c-0.2-0.4-0.4-0.7-0.7-1c-0.3-0.3-0.6-0.5-1-0.6c-0.5-0.1-1-0.2-1.5-0.1c-0.7,0.1-1.4,0.3-2,0.6  c-0.7,0.3-1.4,0.7-2,1.1c-0.7,0.5-1.3,1-1.9,1.6l-1.2-4.2c0.6-0.5,1.2-0.9,1.9-1.3c0.7-0.4,1.5-0.8,2.3-1.2c1.8-1,3.9-1.3,5.9-0.9  c1.9,0.5,3.4,1.9,4,3.8c0.4,0.8,0.6,1.6,0.8,2.5c0,0.7,0,1.4-0.2,2.1c-0.2,0.7-0.4,1.4-0.8,2C65.7,35.3,65.3,36,64.8,36.6z   M64.9,44.3l4.7,2l-1.6,4.8l-4.7-2L64.9,44.3z"/><path d="M85.4,25.3C79.5,12.1,64,6.2,50.8,12.1S31.7,33.5,37.6,46.7C43.5,59.9,59,65.8,72.2,59.9c13.1-5.8,19.1-21.1,13.4-34.3  C85.5,25.5,85.4,25.4,85.4,25.3z M70.8,59.6c-13,4.7-26.6-1-32.1-13.3c-5.8-12.6-0.2-27.5,12.4-33.2c0.1,0,0.1-0.1,0.2-0.1  c3.3-1.4,6.9-2.2,10.5-2.2c3.1,0,6.2,0.6,9.1,1.7V59.6z M72,59c-0.1,0-0.1,0.1-0.2,0.2V12.9c5,2.5,10.4,7,13,12.8  C90.4,38.5,84.7,53.3,72,59z"/><path d="M76.6,61.7c13-7.7,18.2-24,12.1-37.8c-3.1-7.2-9-12.8-16.3-15.6c-0.4-0.1-1.5-0.3-0.5-0.3V2h-63v96h63V66.4l9.9,24.9  c0.7,1.1,1.9,1.8,3.2,1.6c0.6,0,1.3-0.1,1.8-0.4c1.7-0.7,3.3-3.1,2.5-4.7L76.6,61.7z M70.8,64.5V97h-61V3h61v4.6  c-0.1,0-0.1,0-0.2,0.1c-15.7-5-32.4,3.6-37.4,19.3s3.6,32.4,19.3,37.4c2.9,0.9,6,1.4,9,1.4c3.1,0,6.1-0.5,9-1.4L70.8,64.5  C70.7,64.4,70.8,64.4,70.8,64.5z M35.2,47.8c-6.5-14.5,0-31.5,14.5-38s31.5,0,38,14.5c6.5,14.5,0,31.5-14.5,38  C58.7,68.7,41.7,62.3,35.2,47.8z M86.4,91.7c-0.5,0.2-1,0.3-1.5,0.3c-0.9,0.1-1.8-0.3-2.4-1L71.5,64.2l4.3-1.9l12.7,26  C88.9,89.3,87.6,91.1,86.4,91.7z"/><text x="0" y="115" fill="#000000" font-size="5px" font-weight="bold" font-family="'Helvetica Neue', Helvetica, Arial-Unicode, Arial, Sans-serif">Created by Claire Jones</text><text x="0" y="120" fill="#000000" font-size="5px" font-weight="bold" font-family="'Helvetica Neue', Helvetica, Arial-Unicode, Arial, Sans-serif">from the Noun Project</text></svg>